<svg xmlns="http://www.w3.org/2000/svg" width="13.649" height="18.457" viewBox="0 0 13.649 18.457"><defs><style>.a{fill:#fff;}.b{fill:#1e91cf;}</style></defs><g transform="translate(425.411 -0.589)"><path class="a" d="M-413.263,18.546a.993.993,0,0,1-.572-.181l-10.649-7.456a1,1,0,0,1-.41-1l.017-.09-.017-.09a1,1,0,0,1,.41-1l10.649-7.456a.993.993,0,0,1,.572-.181,1,1,0,0,1,.82.426.994.994,0,0,1,.166.748.991.991,0,0,1-.411.645l-9.283,6.5-.585.41.585.41,9.283,6.5a1,1,0,0,1,.245,1.393,1,1,0,0,1-.82.426Z"/><path class="b" d="M-413.263,18.046h0a.5.5,0,0,0,.411-.213.5.5,0,0,0-.123-.7l-9.283-6.5-1.17-.819,1.17-.819,9.283-6.5a.5.5,0,0,0,.2-.322.5.5,0,0,0-.083-.374.5.5,0,0,0-.411-.213.5.5,0,0,0-.286.091L-424.2,9.136a.5.5,0,0,0-.205.5l.033.181L-424.4,10a.5.5,0,0,0,.2.5l10.649,7.457a.5.5,0,0,0,.286.091m0,1a1.493,1.493,0,0,1-.859-.271l-10.649-7.457a1.5,1.5,0,0,1-.615-1.5,1.5,1.5,0,0,1,.615-1.5L-414.122.86a1.493,1.493,0,0,1,.859-.272,1.5,1.5,0,0,1,1.23.64,1.5,1.5,0,0,1-.368,2.089l-9.283,6.5,9.283,6.5a1.5,1.5,0,0,1,.368,2.089A1.5,1.5,0,0,1-413.263,19.046Z"/></g></svg>