<svg xmlns="http://www.w3.org/2000/svg" width="20.569" height="15.928" viewBox="0 0 20.569 15.928"><defs><style>.a{fill:#1e91cf;}.b{fill:none;stroke:#1e91cf;stroke-linecap:round;stroke-width:0.5px;}</style></defs><g transform="translate(-37.153 -153.54)"><g transform="translate(37.527 154.974)"><path class="a" d="M15.989,11.934a5.89,5.89,0,0,1-1.85-4.293V5.272A3.834,3.834,0,0,0,11.891,1.79a5.3,5.3,0,0,0-.921-.32V1.317a1.317,1.317,0,1,0-2.635,0v.174a5.217,5.217,0,0,0-.829.3A3.986,3.986,0,0,0,5.173,5.27V7.641a5.846,5.846,0,0,1-1.767,4.293.264.264,0,0,0,.141.447l2.5.432c.466.08.895.146,1.3.2a2.605,2.605,0,0,0,4.7,0c.407-.054.833-.12,1.3-.2l2.5-.432a.264.264,0,0,0,.141-.446ZM8.862,1.317a.791.791,0,1,1,1.581,0v.048a5.239,5.239,0,0,0-1.581.012ZM9.7,13.965a2.112,2.112,0,0,1-1.691-.873,16.32,16.32,0,0,0,1.688.091,16.232,16.232,0,0,0,1.694-.092,2.113,2.113,0,0,1-1.691.874Zm3.557-1.672c-.506.087-.969.158-1.407.214h0c-.193.025-.38.046-.564.064H11.28c-.168.017-.332.03-.494.042l-.092.006c-.141.009-.28.017-.418.022h-.085c-.328.011-.651.011-.979,0H9.125q-.2-.008-.413-.022l-.1-.007c-.158-.011-.318-.025-.482-.041H8.113c-.182-.018-.369-.04-.56-.064h0c-.44-.056-.9-.127-1.413-.214l-2.019-.349A6.342,6.342,0,0,0,5.7,7.641V5.272a3.45,3.45,0,0,1,2.027-3,4.711,4.711,0,0,1,.921-.312h.008a4.791,4.791,0,0,1,2-.018h.01a4.766,4.766,0,0,1,1.008.329,3.345,3.345,0,0,1,1.94,3V7.642a6.412,6.412,0,0,0,1.663,4.3Z"/><path class="a" d="M20.182,10.359a4.026,4.026,0,0,0-3.286,0,2.663,2.663,0,0,0-1.567,2.28.264.264,0,0,0,.262.265h0a.263.263,0,0,0,.263-.262,2.125,2.125,0,0,1,1.261-1.8,3.488,3.488,0,0,1,2.846,0,.263.263,0,1,0,.219-.479Z" transform="translate(-8.838 -7.372)"/></g><path class="b" d="M49.811,154.327a6.526,6.526,0,0,1,4.249,3"/><path class="b" d="M54.059,154.327a6.526,6.526,0,0,0-4.249,3" transform="translate(-9)"/><path class="b" d="M54.059,154.327a6.526,6.526,0,0,0-4.249,3" transform="translate(-43.264 14.203) rotate(-12.007)"/><path class="b" d="M4.248,3A6.526,6.526,0,0,1,0,0" transform="translate(56.7 157.739) rotate(-167.993)"/></g></svg>