<svg xmlns="http://www.w3.org/2000/svg" xmlns:xlink="http://www.w3.org/1999/xlink" width="43" height="43" viewBox="0 0 43 43"><defs><style>.a{fill:#09a041;}.b{clip-path:url(#a);}.c{opacity:0.2;}.d{fill:#fff;}</style><clipPath id="a"><circle class="a" cx="21.5" cy="21.5" r="21.5" transform="translate(2 112)"/></clipPath></defs><g transform="translate(-2 -112)"><path class="a" d="M21.5,0A21.5,21.5,0,1,1,0,21.5,21.5,21.5,0,0,1,21.5,0Z" transform="translate(2 112)"/><g class="b"><g class="c" transform="translate(2.151 110.77)"><path class="d" d="M21.236,28.4A30.188,30.188,0,0,1,3.314,35.357C-1.07,27.879-.167,9.7,4.99,4.413,9.632-.357,24.2-1.26,32.582,1.705,34.645,10.215,30.391,21.046,21.236,28.4Z" transform="translate(-0.509)"/></g></g><path class="d" d="M92.3,122.94a2.59,2.59,0,0,1-2.18-1.09l-6.783-8.721a2.762,2.762,0,1,1,4.36-3.391l4.6,5.935,10.174-13.2a2.762,2.762,0,1,1,4.36,3.391L94.48,121.85a3.168,3.168,0,0,1-2.18,1.09Z" transform="translate(-71.586 20.159)"/></g></svg>