<svg xmlns="http://www.w3.org/2000/svg" width="20.501" height="18.001" viewBox="0 0 20.501 18.001">
  <g id="Group_3741" data-name="Group 3741" transform="translate(-313.635 -204.999)">
    <path id="Subtraction_27" data-name="Subtraction 27" d="M5991.136,2269.5h-12v-1h12v1Zm-17,0h-3.5v-1h3.5v1Z" transform="translate(-5657 -2055)" fill="#6d6e71"/>
    <path id="Subtraction_26" data-name="Subtraction 26" d="M5991.136,2269.5H5987.5v-1h3.636v1Zm-8.637,0h-11.864v-1H5982.5v1Z" transform="translate(-5657 -2061)" fill="#6d6e71"/>
    <path id="Subtraction_28" data-name="Subtraction 28" d="M5991.136,2269.5H5987.5v-1h3.636v1Zm-8.637,0h-11.864v-1H5982.5v1Z" transform="translate(-5657 -2049)" fill="#6d6e71"/>
    <path id="Union_31" data-name="Union 31" d="M5984,2283.5a1.5,1.5,0,0,1-1.5-1.5v-2a1.5,1.5,0,0,1,1.5-1.5h2a1.5,1.5,0,0,1,1.5,1.5v2a1.5,1.5,0,0,1-1.5,1.5Zm-8.365-6a1.5,1.5,0,0,1-1.5-1.5v-2a1.5,1.5,0,0,1,1.5-1.5h2a1.5,1.5,0,0,1,1.5,1.5v2a1.5,1.5,0,0,1-1.5,1.5Zm8.365-6a1.5,1.5,0,0,1-1.5-1.5v-2a1.5,1.5,0,0,1,1.5-1.5h2a1.5,1.5,0,0,1,1.5,1.5v2a1.5,1.5,0,0,1-1.5,1.5Z" transform="translate(-5657 -2061)" fill="none" stroke="#6d6e71" stroke-linecap="round" stroke-width="1"/>
  </g>
</svg>
