<svg xmlns="http://www.w3.org/2000/svg" width="34.054" height="35.243" viewBox="0 0 34.054 35.243"><defs><style>.a{fill:#ded3cf;}.b{fill:#efe2dd;}.c{fill:#29ccb1;}.d{fill:#73c3ff;}.e{fill:#6fb9e0;}.f{fill:#4cbf7c;}.g{fill:#08a74c;}</style></defs><g transform="translate(0 0.025)"><path class="a" d="M209.228,90.936h-8.94a1.034,1.034,0,0,1-.526-1.924c3.9-2.3,5.919-4.987,6.186-8.208a2.222,2.222,0,0,1,2.219-2,4.369,4.369,0,0,1,4.3,4.367h0v.347a11.428,11.428,0,0,1-2.376,6.95A1.034,1.034,0,0,1,209.228,90.936Z" transform="translate(-186.129 -73.387)"/><path class="b" d="M162.1,228.322a3.242,3.242,0,0,0-3.239-3.239H142.2a1.033,1.033,0,0,0-.526.144c-1.169.691-2.35,1.261-3.3,1.718-.331.16-.643.31-.928.452a1.034,1.034,0,0,0-.571.925v13.231a1.034,1.034,0,0,0,.571.925c4.177,2.088,7.648,2.341,11.7,2.341.627,0,1.268-.006,1.927-.012.729-.007,1.483-.014,2.274-.014h3.268a3.238,3.238,0,0,0,2.789-4.885,3.236,3.236,0,0,0,1.1-4.41,3.235,3.235,0,0,0,.705-4.947,3.216,3.216,0,0,0,.891-2.229Z" transform="translate(-128.046 -209.601)"/><g transform="translate(13.231)"><path class="c" d="M428.454,113.128h-2.2a1.034,1.034,0,1,1,0-2.067h2.2a1.034,1.034,0,1,1,0,2.067Z" transform="translate(-409.779 -103.422)"/><path class="c" d="M204.035,113.128H201.83a1.034,1.034,0,0,1,0-2.067h2.2a1.034,1.034,0,0,1,0,2.067Z" transform="translate(-200.796 -103.422)"/><path class="c" d="M267.052,3.978a1.033,1.033,0,0,1-.9-.517l-1.1-1.91a1.034,1.034,0,0,1,1.79-1.034l1.1,1.91a1.034,1.034,0,0,1-.894,1.551Z" transform="translate(-260.505 -0.001)"/><path class="c" d="M378.156,3.978a1.034,1.034,0,0,1-.894-1.551l1.1-1.91a1.034,1.034,0,1,1,1.79,1.034l-1.1,1.91a1.033,1.033,0,0,1-.9.517Z" transform="translate(-364.995)"/></g><path class="d" d="M74.624,418.666v5.444H72.557v-5.444a1.034,1.034,0,1,1,2.067,0Z" transform="translate(-68.147 -388.907)"/><g transform="translate(13.231)"><path class="e" d="M428.454,113.128h-2.2a1.034,1.034,0,1,1,0-2.067h2.2a1.034,1.034,0,1,1,0,2.067Z" transform="translate(-409.779 -103.422)"/><path class="e" d="M204.035,113.128H201.83a1.034,1.034,0,0,1,0-2.067h2.2a1.034,1.034,0,0,1,0,2.067Z" transform="translate(-200.796 -103.422)"/><path class="e" d="M267.052,3.978a1.033,1.033,0,0,1-.9-.517l-1.1-1.91a1.034,1.034,0,0,1,1.79-1.034l1.1,1.91a1.034,1.034,0,0,1-.894,1.551Z" transform="translate(-260.505 -0.001)"/><path class="e" d="M378.156,3.978a1.034,1.034,0,0,1-.894-1.551l1.1-1.91a1.034,1.034,0,1,1,1.79,1.034l-1.1,1.91a1.033,1.033,0,0,1-.9.517Z" transform="translate(-364.995)"/></g><g transform="translate(4.41 28.725)"><path class="d" d="M74.624,418.666v5.444H72.557v-5.444a1.034,1.034,0,1,1,2.067,0Z" transform="translate(-72.557 -417.632)"/></g><path class="f" d="M18.292,225.083H9.472a1.034,1.034,0,0,0-1.034,1.034v17.641A1.053,1.053,0,0,0,9.472,244.8h6.615a3.276,3.276,0,0,0,2.9-1.807,3.211,3.211,0,0,0,.341-1.445V226.117a1.034,1.034,0,0,0-1.036-1.034Z" transform="translate(-8.438 -209.601)"/><path class="g" d="M74.624,417.664v5.513H72.557v-5.513a1.034,1.034,0,0,1,2.067,0Z" transform="translate(-68.147 -387.973)"/></g></svg>