<svg xmlns="http://www.w3.org/2000/svg" width="30.208" height="28.878" viewBox="0 0 30.208 28.878">
  <path id="Union_30" data-name="Union 30" d="M15.433,28.814,8.26,25.944a5.642,5.642,0,0,1-6.93-8.636V7.22c0-.006.005-.093.005-.1a.9.9,0,0,1,.516-.72L15.387.085a.9.9,0,0,1,.764,0L29.687,6.4a.9.9,0,0,1,.516.72c0,.007.005.093.005.1V22.561a.9.9,0,0,1-.567.838L16.1,28.814a.906.906,0,0,1-.671,0ZM1.253,20.946a4.388,4.388,0,1,0,4.388-4.388A4.388,4.388,0,0,0,1.253,20.946ZM4.5,7.156l11.266,4.506,11.266-4.54L15.907,1.9ZM2.81,21.216l.868-.9,1.3,1.248,2.6-2.912.935.836-3.47,3.881Z" fill="#1e91cf"/>
</svg>
