<svg xmlns="http://www.w3.org/2000/svg" width="16.979" height="17.834" viewBox="0 0 16.979 17.834"><defs><style>.a{fill:#fff2f2;}</style></defs><g transform="translate(0)"><path class="a" d="M83.52,307.563H73.795V306.9H83.52a1.386,1.386,0,1,0,0-2.772H73.795v-.66H83.52a2.046,2.046,0,1,1,0,4.093Z" transform="translate(-71.652 -292.899)"/><path class="a" d="M24.4,11.231H14.162L12.275,3.905H25.6L26.609,0h2.645V.66H27.121Zm-9.725-.66h9.213l1.546-6.005H13.127Z" transform="translate(-12.275)"/><path class="a" d="M65.576,441.974a1.264,1.264,0,1,1,1.264-1.264A1.265,1.265,0,0,1,65.576,441.974Zm0-1.867a.6.6,0,1,0,.6.6A.6.6,0,0,0,65.576,440.108Z" transform="translate(-62.499 -424.14)"/><path class="a" d="M340.45,441.974a1.264,1.264,0,1,1,1.262-1.264A1.266,1.266,0,0,1,340.45,441.974Zm0-1.867a.6.6,0,1,0,.6.6A.6.6,0,0,0,340.45,440.108Z" transform="translate(-327.798 -424.14)"/><rect class="a" width="9.725" height="0.66" transform="translate(2.143 10.57)"/><rect class="a" width="13.158" height="0.66" transform="translate(0.426 3.905)"/></g></svg>