<svg xmlns="http://www.w3.org/2000/svg" width="42.943" height="43" viewBox="0 0 42.943 43">
  <g id="checked_1_" data-name="checked (1)" transform="translate(-0.301 0)">
    <path id="Path_19037" data-name="Path 19037" d="M38.558,39.583c-6.58,5.371-27.125,5.371-33.57,0-6.58-5.371-5.908-28.333,0-34.376s27.662-6.043,33.57,0S45.137,34.212,38.558,39.583Z" transform="translate(0 -0.611)" fill="#09a041"/>
    <g id="Group_4725" data-name="Group 4725" transform="translate(0.321 0)" opacity="0.2">
      <path id="Path_19038" data-name="Path 19038" d="M22.1,29.572A31.44,31.44,0,0,1,3.431,36.823C-1.135,29.035-.2,10.1,5.176,4.6,10.01-.372,25.184-1.312,33.912,1.776,36.061,10.639,31.629,21.918,22.1,29.572Z" transform="translate(-0.509 0)" fill="#fff"/>
    </g>
    <path id="Path_19039" data-name="Path 19039" d="M93.339,125.282a2.871,2.871,0,0,1-2.417-1.209l-7.52-9.668a3.062,3.062,0,0,1,4.834-3.76l5.1,6.58,11.28-14.637a3.062,3.062,0,1,1,4.834,3.76l-13.7,17.725A3.512,3.512,0,0,1,93.339,125.282Z" transform="translate(-74.655 -91.815)" fill="#fff"/>
  </g>
</svg>
