<svg xmlns="http://www.w3.org/2000/svg" width="28.325" height="34.108" viewBox="0 0 28.325 34.108"><defs><style>.a{fill:#1e91cf;}</style></defs><g transform="translate(-1219.286 -9620.191)"><path class="a" d="M1254.1,9662.416h-6.125a1.538,1.538,0,0,0-1.534,1.533v2.186a1.538,1.538,0,0,0,1.534,1.533h1.6v2.173h-17.152a1.539,1.539,0,0,0-1.534,1.534v10.668a1.54,1.54,0,0,0,1.534,1.535H1253.3a1.538,1.538,0,0,0,1.534-1.533v-10.669a1.539,1.539,0,0,0-1.534-1.534h-.739v-2.173h1.544a1.538,1.538,0,0,0,1.534-1.533v-2.186A1.538,1.538,0,0,0,1254.1,9662.416Z" transform="translate(-8.025 -29.278)"/><path class="a" d="M1221.942,9642.1a2.458,2.458,0,0,1,2.454-2.455h13.556a4.681,4.681,0,0,0-1.785-1.894l.306.016c-.1-.007-1.379-.166-.825-4.229a23.346,23.346,0,0,0,.169-4.122,17.208,17.208,0,0,0-.512-3.856,5.992,5.992,0,0,0-5.058-5.225,7.571,7.571,0,0,0-2.931,0,6.006,6.006,0,0,0-5.079,5.391,27.112,27.112,0,0,0-.355,2.8,3.778,3.778,0,0,0-.071,1.447,22.761,22.761,0,0,0,.186,3.563c.343,2.517-.032,3.666-.392,4.181a4.18,4.18,0,0,0-1.668,1.588,7.865,7.865,0,0,0-.45,4.9,18.252,18.252,0,0,0,1.329,4.894,11.846,11.846,0,0,0,.73,1.412c.043.07.214.366.4.656Zm9.85-5.246a3.482,3.482,0,0,1-1.5.913,5.419,5.419,0,0,1-2.856,0,3.489,3.489,0,0,1-1.5-.913.569.569,0,0,0-.344-.116,1.679,1.679,0,0,0,.214-.736,4.045,4.045,0,0,0,2.512,1h.911a4.085,4.085,0,0,0,2.593-1.07,1.688,1.688,0,0,0,.273.9c-.194.008-.308.021-.308.021Zm-8.349-8.437c.168-1.683,1.6-2.862,2.442-2.609a10.1,10.1,0,0,0,1.684.338,7.86,7.86,0,0,0,2.513,0,10.3,10.3,0,0,0,1.684-.338c.84-.253,2.273.927,2.442,2.609s-1.372,6.643-4.631,7.664a2.71,2.71,0,0,1-1.5,0c-3.456-1.35-4.8-5.98-4.634-7.666Z"/></g></svg>