<svg xmlns="http://www.w3.org/2000/svg" width="18" height="16.782" viewBox="0 0 18 16.782"><defs><style>.a{fill:#c5d3dd;}.b{fill:#ffcb7c;}.c{fill:#f5b75a;}.d{fill:#0180c4;}.e{fill:#1e91cf;}.f{fill:#fff3ef;}.g{fill:#f1f0f0;}.h{fill:#a6a8ac;}.i{fill:#59595c;}</style></defs><g transform="translate(0 -16.958)"><path class="a" d="M4.3,273.5H.293a.27.27,0,1,1,0-.539H4.3a.27.27,0,1,1,0,.539Z" transform="translate(0 -246.806)"/><path class="a" d="M34.5,320.595H31.451a.27.27,0,1,1,0-.539H34.5a.27.27,0,1,1,0,.539Z" transform="translate(-30.039 -292.211)"/><path class="a" d="M83.655,359.95H81.8a.27.27,0,1,1,0-.539h1.85a.27.27,0,1,1,0,.539Z" transform="translate(-78.584 -330.152)"/><path class="a" d="M42.112,226.4H39.063a.27.27,0,1,1,0-.539h3.049a.27.27,0,1,1,0,.539Z" transform="translate(-37.377 -201.4)"/><path class="a" d="M91.268,187.046h-1.85a.27.27,0,1,1,0-.539h1.85a.27.27,0,1,1,0,.539Z" transform="translate(-85.924 -163.459)"/><path class="b" d="M148.323,102.721l-1.37-1.593a.269.269,0,0,0-.38-.029l-.853.733a.269.269,0,0,0-.029.38l1.37,1.593a.269.269,0,0,0,.38.029l.853-.733a.269.269,0,0,0,.029-.38Z" transform="translate(-140.396 -81.056)"/><path class="c" d="M116.743,69.467l-.578-.673a.269.269,0,0,0-.38-.029l-1.989,1.71a.269.269,0,0,0-.029.38l.578.673a.269.269,0,0,0,.38.029l1.989-1.71a.269.269,0,0,0,.029-.38Z" transform="translate(-109.618 -49.884)"/><path class="b" d="M394.724,102.017a.269.269,0,0,0-.093-.184l-.853-.733a.269.269,0,0,0-.38.029l-1.37,1.593a.269.269,0,0,0,.029.38l.853.733a.269.269,0,0,0,.38-.029l1.37-1.593A.269.269,0,0,0,394.724,102.017Z" transform="translate(-377.885 -81.056)"/><path class="c" d="M417.287,70.474l-1.989-1.71a.269.269,0,0,0-.38.029l-.578.673a.269.269,0,0,0,.029.38l1.989,1.71a.269.269,0,0,0,.176.065h.02a.269.269,0,0,0,.184-.093l.578-.673A.269.269,0,0,0,417.287,70.474Z" transform="translate(-399.394 -49.883)"/><path class="d" d="M285.271,59.018h1.653v2.361h-1.653Z" transform="translate(-275.024 -40.549)"/><path class="e" d="M241.129,16.958h-3.037a.516.516,0,0,0-.516.516V18.1a.516.516,0,0,0,.516.516h3.021l.734-.2V17.168Z" transform="translate(-229.043)"/><path class="d" d="M335.7,16.958h-1.078a.516.516,0,0,1,.516.516V18.1a.516.516,0,0,1-.516.516H335.7a.516.516,0,0,0,.516-.516v-.627A.516.516,0,0,0,335.7,16.958Z" transform="translate(-322.605)"/><path class="e" d="M120.54,112.28a6.928,6.928,0,0,1,1.416-13.614c.7-.036,6.848,1.091,6.848,6.708,0,4.116-3.754,7.378-7.026,7.119A6.965,6.965,0,0,1,120.54,112.28Z" transform="translate(-111.244 -78.772)"/><path class="d" d="M293.821,98.478q-.272,0-.539.021a6.927,6.927,0,0,1,0,13.812q.267.021.539.021a6.927,6.927,0,0,0,0-13.854Z" transform="translate(-282.748 -78.592)"/><circle class="f" cx="5.394" cy="5.394" r="5.394" transform="translate(5.679 21.419)"/><path class="g" d="M294.349,141.177a5.408,5.408,0,0,0-1.242-.019l.165.019a5.395,5.395,0,0,1-.152,10.717,5.394,5.394,0,0,0,1.23-10.717Z" transform="translate(-282.579 -119.713)"/><g transform="translate(6.02 21.766)"><path class="h" d="M301.586,152.016a.251.251,0,0,1-.251-.251v-.693a.251.251,0,1,1,.5,0v.693A.251.251,0,0,1,301.586,152.016Z" transform="translate(-296.531 -150.822)"/><path class="h" d="M382.951,190.8a.251.251,0,0,1-.177-.428l.49-.49a.251.251,0,1,1,.355.355l-.49.49A.25.25,0,0,1,382.951,190.8Z" transform="translate(-374.974 -188.412)"/><path class="h" d="M417.6,285.06h-.693a.251.251,0,1,1,0-.5h.693a.251.251,0,1,1,0,.5Z" transform="translate(-407.712 -279.755)"/><path class="h" d="M384.056,366.916a.25.25,0,0,1-.177-.073l-.49-.49a.251.251,0,1,1,.355-.355l.49.49a.251.251,0,0,1-.177.428Z" transform="translate(-375.567 -358.198)"/><path class="h" d="M302.456,401.076a.251.251,0,0,1-.251-.251v-.693a.251.251,0,1,1,.5,0v.693A.251.251,0,0,1,302.456,401.076Z" transform="translate(-297.37 -390.936)"/><path class="h" d="M207.454,367.531a.251.251,0,0,1-.177-.428l.49-.49a.251.251,0,1,1,.355.355l-.49.49A.25.25,0,0,1,207.454,367.531Z" transform="translate(-205.781 -358.791)"/><path class="h" d="M168.541,285.93h-.693a.251.251,0,0,1,0-.5h.693a.251.251,0,1,1,0,.5Z" transform="translate(-167.598 -280.594)"/><path class="h" d="M207.329,191.418a.25.25,0,0,1-.177-.073l-.49-.49a.251.251,0,1,1,.355-.355l.49.49a.251.251,0,0,1-.177.428Z" transform="translate(-205.188 -189.005)"/></g><path class="h" d="M301.052,224.877a.269.269,0,0,1-.269-.269V222.8a.269.269,0,1,1,.539,0v1.811A.269.269,0,0,1,301.052,224.877Z" transform="translate(-289.979 -198.185)"/><path class="h" d="M311.514,293.079a.269.269,0,0,1-.191-.079l-1.961-1.961a.269.269,0,0,1,.381-.381l1.961,1.961a.269.269,0,0,1-.19.46Z" transform="translate(-298.174 -263.793)"/><path class="i" d="M294.754,276.591a.541.541,0,1,1,.541-.541A.542.542,0,0,1,294.754,276.591Z" transform="translate(-283.645 -249.263)"/></g></svg>