<svg xmlns="http://www.w3.org/2000/svg" xmlns:xlink="http://www.w3.org/1999/xlink" width="77.927" height="64.77" viewBox="0 0 77.927 64.77"><defs><style>.a{fill:#fff;}.b{fill:#d0d2d3;}.c{fill:url(#a);}.d{fill:#43b02a;}.e{fill:url(#b);}.f{fill:url(#c);}.g{fill:#0085ca;}.h{fill:url(#d);}.i{fill:url(#e);}.j{fill:url(#f);}.k{fill:url(#g);}.l{fill:url(#h);}.m{fill:url(#i);}.n{fill:url(#j);}</style><linearGradient id="a" x1="1.127" y1="0.115" x2="-0.112" y2="0.725" gradientUnits="objectBoundingBox"><stop offset="0" stop-color="#c2c3c5"/><stop offset="1" stop-color="#eee"/></linearGradient><linearGradient id="b" x1="1.129" y1="0.116" x2="-0.113" y2="0.719" xlink:href="#a"/><linearGradient id="c" x1="1.129" y1="0.115" x2="-0.114" y2="0.713" xlink:href="#a"/><linearGradient id="d" x1="1.129" y1="0.115" x2="-0.114" y2="0.713" xlink:href="#a"/><linearGradient id="e" x1="1.116" y1="0.109" x2="-0.102" y2="0.723" xlink:href="#a"/><linearGradient id="f" x1="0.99" y1="0.01" x2="0.047" y2="1.095" xlink:href="#a"/><linearGradient id="g" x1="1.052" y1="0.096" x2="0" y2="1.007" xlink:href="#a"/><linearGradient id="h" x1="0.966" y1="0.181" x2="-0.077" y2="0.919" xlink:href="#a"/><linearGradient id="i" x1="0.741" y1="0.267" x2="0.158" y2="0.832" xlink:href="#a"/><linearGradient id="j" x1="0.649" y1="0.313" x2="0.305" y2="0.744" xlink:href="#a"/></defs><g transform="translate(0)"><g transform="translate(0)"><path class="a" d="M83.006,64.77H24.623a1.766,1.766,0,0,1-1.763-1.763V1.763A1.763,1.763,0,0,1,24.623,0H83.006a1.766,1.766,0,0,1,1.766,1.763V63.007a1.769,1.769,0,0,1-1.766,1.763ZM28.255,58.563H43.994V23.025H28.255ZM48.523,48.371H80.236V23.025H48.52Z" transform="translate(-15.664)"/><path class="b" d="M82.988,1.46H24.605a1.5,1.5,0,0,0-1.5,1.5V64.2a1.5,1.5,0,0,0,1.5,1.5H82.988a1.5,1.5,0,0,0,1.492-1.5V2.955A1.5,1.5,0,0,0,82.988,1.46ZM44.234,60.007H27.964V23.944h16.27ZM80.486,49.818H48.232V23.944H80.486Z" transform="translate(-15.836 -1)"/><path class="a" d="M77.924,54.068a.264.264,0,0,0-.063-.176l-8.744-10a.28.28,0,0,0-.2-.091H7.7a.264.264,0,0,0-.214.11l-7.435,10a.271.271,0,0,0-.035.249V63.5a4.57,4.57,0,0,0,8.867,1.549,4.57,4.57,0,0,0,8.6,0,4.539,4.539,0,0,0,8.552,0,4.539,4.539,0,0,0,8.552,0,4.539,4.539,0,0,0,8.552,0,4.542,4.542,0,0,0,8.555,0,4.539,4.539,0,0,0,8.552,0,4.539,4.539,0,0,0,8.555,0,4.722,4.722,0,0,0,4.429,3.028,4.64,4.64,0,0,0,4.7-4.567V54.068Z" transform="translate(0 -30.013)"/><path class="c" d="M.28,76.13v9.717a4.3,4.3,0,0,0,8.6,0V76.13Z" transform="translate(-0.192 -52.167)"/><path class="d" d="M27.59,76.13v9.717a4.3,4.3,0,0,0,8.6,0V76.13Z" transform="translate(-18.905 -52.167)"/><path class="e" d="M54.9,76.13v9.717a4.278,4.278,0,0,0,8.555,0V76.13Z" transform="translate(-37.619 -52.167)"/><path class="d" d="M82.077,76.13v9.717a4.278,4.278,0,1,0,8.552,0V76.13Z" transform="translate(-56.24 -52.167)"/><path class="f" d="M109.247,76.13v9.717a4.278,4.278,0,1,0,8.552,0V76.13Z" transform="translate(-74.858 -52.167)"/><path class="g" d="M136.417,76.13v9.717a4.278,4.278,0,1,0,8.552,0V76.13Z" transform="translate(-93.476 -52.167)"/><path class="h" d="M163.587,76.13v9.717a4.278,4.278,0,1,0,8.552,0V76.13Z" transform="translate(-112.093 -52.167)"/><path class="g" d="M190.757,76.13v9.717a4.278,4.278,0,1,0,8.552,0V76.13Z" transform="translate(-130.711 -52.167)"/><path class="i" d="M217.93,76.13v9.717a4.435,4.435,0,0,0,8.864,0V76.13Z" transform="translate(-149.332 -52.167)"/><path class="j" d="M9.152,54.657H.25l7.432-10h7.041Z" transform="translate(-0.171 -30.602)"/><path class="d" d="M36.345,54.657h-8.9l5.644-10h7.041Z" transform="translate(-18.803 -30.602)"/><path class="k" d="M63.542,54.657h-8.9l3.853-10h7.041Z" transform="translate(-37.441 -30.602)"/><path class="d" d="M90.742,54.657h-8.9l2.062-10h7.045Z" transform="translate(-56.079 -30.602)"/><path class="l" d="M117.935,54.657h-8.9l.277-10h7.041Z" transform="translate(-74.711 -30.602)"/><path class="g" d="M141.836,54.657h-8.9l-1.514-10h7.041Z" transform="translate(-90.053 -30.602)"/><path class="m" d="M165.137,54.657h-8.9l-3.305-10h7.041Z" transform="translate(-104.792 -30.602)"/><path class="g" d="M188.438,54.657h-8.9l-5.1-10h7.041Z" transform="translate(-119.532 -30.602)"/><path class="n" d="M211.746,54.657h-8.9l-6.881-10H203Z" transform="translate(-134.278 -30.602)"/></g></g></svg>