<svg xmlns="http://www.w3.org/2000/svg" width="43" height="43" viewBox="0 0 43 43">
  <g id="Group_4303" data-name="Group 4303" transform="translate(-45 -112)">
    <path id="Path_18562" data-name="Path 18562" d="M21.5,0A21.5,21.5,0,1,1,0,21.5,21.5,21.5,0,0,1,21.5,0Z" transform="translate(45 112)" fill="#fff"/>
    <path id="Icon_ionic-ios-alert" data-name="Icon ionic-ios-alert" d="M20.5,11.706l-.328,12.181a1.514,1.514,0,0,1-1.492,1.566h0a1.514,1.514,0,0,1-1.492-1.566L16.86,11.706a1.823,1.823,0,0,1,1.82-1.863h0a1.823,1.823,0,0,1,1.82,1.863ZM18.68,32.491a1.966,1.966,0,1,1,1.418-.549A1.966,1.966,0,0,1,18.68,32.491Z" transform="translate(48.198 112.157)" fill="#1e91cf"/>
  </g>
</svg>
