<svg xmlns="http://www.w3.org/2000/svg" width="26.807" height="21.092" viewBox="0 0 26.807 21.092"><defs><style>.a{fill:#1e91cf;}</style></defs><g transform="translate(0 -44.805)"><g transform="translate(0 44.8)"><path class="a" d="M25.914,48.087A2.882,2.882,0,0,0,23.8,47.2H19.57v-.051a2.288,2.288,0,0,0-.688-1.656,2.331,2.331,0,0,0-1.656-.688H9.581a2.349,2.349,0,0,0-2.37,2.344V47.2h-4.2A2.882,2.882,0,0,0,.9,48.092,3.029,3.029,0,0,0,0,50.2V62.89A2.882,2.882,0,0,0,.892,65a3.029,3.029,0,0,0,2.115.892H23.8A2.882,2.882,0,0,0,25.915,65a3.029,3.029,0,0,0,.892-2.115V50.2a2.882,2.882,0,0,0-.893-2.113Zm-.433,14.8h-.025A1.653,1.653,0,0,1,23.8,64.548H3.007A1.653,1.653,0,0,1,1.35,62.892V50.2a1.653,1.653,0,0,1,1.656-1.656H7.925a.685.685,0,0,0,.688-.688v-.739a.959.959,0,0,1,.994-.994h7.619a.959.959,0,0,1,.994.994v.739a.685.685,0,0,0,.688.688h4.918A1.653,1.653,0,0,1,25.481,50.2Z" transform="translate(0 -44.8)"/><path class="a" d="M118.268,130.8a6.264,6.264,0,1,0,4.434,1.835,6.264,6.264,0,0,0-4.434-1.835Zm3.465,9.759a4.922,4.922,0,0,1-6.931,0,4.871,4.871,0,0,1-1.427-3.465,4.98,4.98,0,0,1,1.427-3.465,4.871,4.871,0,0,1,3.465-1.427,4.98,4.98,0,0,1,3.465,1.427,4.871,4.871,0,0,1,1.427,3.465,4.768,4.768,0,0,1-1.425,3.465Z" transform="translate(-104.865 -125.322)"/><circle class="a" cx="1.249" cy="1.249" r="1.249" transform="translate(21.226 5.453)"/></g></g></svg>