<svg xmlns="http://www.w3.org/2000/svg" width="35.572" height="33.104" viewBox="0 0 35.572 33.104"><defs><style>.a{fill:#eaf5fa;}.b{fill:#33363d;}.c{fill:#0aa74c;}.d{fill:#4cbf7c;}.e{fill:#fff5f5;}.f{fill:#cdbfba;}.g{fill:#efe2dd;}.h{fill:#125071;}.i{fill:#f4f5f6;}.j{fill:#fae2eb;}.k{fill:#f8d4de;}.l{fill:#46a5d7;}.m{fill:#add7ed;}.n{fill:#fff;}.o{fill:#145d84;}.p{fill:#fae2ec;}.q{fill:#009d3a;}.r{fill:#0085d3;}</style></defs><g transform="translate(0 0.007)"><ellipse class="a" cx="1.613" cy="1.077" rx="1.613" ry="1.077" transform="translate(28 13.726)"/><rect class="b" width="1.076" height="1.077" transform="translate(21.551 13.833)"/><rect class="c" width="5.3" height="2.152" transform="translate(24.851 13.726)"/><path class="d" d="M2.975,16.49s.193-5.294,0-7.542a3.248,3.248,0,0,0-2.643-2.7V4.605H2.293V2.421a1.23,1.23,0,1,1,.518.028V4.605h.164A3.806,3.806,0,0,1,7.125,8.66v7.83Z" transform="translate(22.334 9.275)"/><path class="e" d="M-9.8,0H.108L-1.886,1.625l-9.489-.258Z" transform="translate(11.375 11.025)"/><path class="f" d="M-2101.349,3308v7.653l-1.724,2.6v-8.891Z" transform="translate(2112.733 -3296.974)"/><path class="g" d="M-2082.892,3353.12h-2.462l-1.885-7.377h-6.418s-1.78.183-1.257-1.815,2.6-.453,2.6-.453h5.5s1.439-.352,1.865,1.727S-2082.892,3353.12-2082.892,3353.12Z" transform="translate(2105.714 -3326.385)"/><rect class="d" width="7.45" height="2.152" transform="translate(17.326 26.64)"/><path class="d" d="M-2132.384,3387.077a6.066,6.066,0,0,0-3.207,2.673,6.954,6.954,0,0,0-1.109,4.236h-9.169s.441-6.9,6.571-6.909S-2132.384,3387.077-2132.384,3387.077Z" transform="translate(2149.987 -3365.796)"/><ellipse class="h" cx="3.763" cy="3.767" rx="3.763" ry="3.767" transform="translate(25.851 25.563)"/><ellipse class="i" cx="1.613" cy="1.614" rx="1.613" ry="1.614" transform="translate(28 27.715)"/><ellipse class="h" cx="3.763" cy="3.767" rx="3.763" ry="3.767" transform="translate(8.651 25.563)"/><path class="j" d="M-2065.22,3266.575l-.268.989h1.178l.331-.989Z" transform="translate(2080.015 -3260.921)"/><ellipse class="i" cx="1.613" cy="1.614" rx="1.613" ry="1.614" transform="translate(10.802 27.715)"/><path class="k" d="M0,2.2a2.2,2.2,0,0,1,4.369-.389h.617a.324.324,0,0,1,0,.648h-.6A2.2,2.2,0,0,1,0,2.2Z" transform="translate(13.555 1.56)"/><path class="c" d="M11.88,6.612H.035A6.06,6.06,0,0,1,0,5.964a5.957,5.957,0,1,1,11.914,0,6.061,6.061,0,0,1-.035.648Z" transform="translate(6.562 22.694)"/><path class="c" d="M11.88,6.612H.035A6.06,6.06,0,0,1,0,5.964a5.957,5.957,0,1,1,11.914,0,6.061,6.061,0,0,1-.035.648Z" transform="translate(23.658 22.694)"/><rect class="h" width="8.6" height="2.152" rx="1.027" transform="translate(9.726 19.106)"/><path class="h" d="M0,0H9.675V1.077h-8.6A1.076,1.076,0,0,1,0,0Z" transform="translate(0.051 21.259)"/><path class="l" d="M-2096.077,3283.555l1.919-8.472s.716-2.164,2.468-2.18,2.213,1.244,1.962,2.509-1.962,8.144-1.962,8.144Z" transform="translate(2106.644 -3266.428)"/><path class="m" d="M-2071.727,3290.961h-2.313l.21-1.532a1.186,1.186,0,0,1,1.3-1c1.21-.025.964,1.414.964,1.414Z" transform="translate(2087.462 -3279.935)"/><path class="b" d="M-2020.623,3421.823s-.482,1.532.564,1.614a16.657,16.657,0,0,0,2.169,0,.7.7,0,0,0,.493-.276.7.7,0,0,0,.127-.551c-.057-.78-.99-.883-.99-.883h-2.364" transform="translate(2041.058 -3395.957)"/><path class="n" d="M-2049.39,3258.429h-1.257a.377.377,0,0,0,.35.249,5.669,5.669,0,0,0,.794,0Z" transform="translate(2067.098 -3253.831)"/><path class="o" d="M1.943,6.1a3.178,3.178,0,1,1,4.4-2.928c0,.021,0,.043,0,.065H2.875A.778.778,0,0,1,1.943,4.36V6.1h0Z" transform="translate(12.649 0.005)"/><path class="p" d="M-2063.409,3311.139l-4.547-1.085a1.506,1.506,0,0,1-1.544-1.467,14.576,14.576,0,0,1,0-1.992h1.544v1.8l4.951,1.373Z" transform="translate(2083.532 -3295.749)"/><ellipse class="k" cx="0.537" cy="1.077" rx="0.537" ry="1.077" transform="translate(20.476 13.726)"/><rect class="g" width="9.675" height="8.862" transform="translate(0.051 12.397)"/><rect class="i" width="5.375" height="4.873" transform="translate(2.201 14.391)"/><g transform="translate(3.107 15.87)"><rect class="q" width="3.455" height="1.152"/><rect class="r" width="3.455" height="1.152" transform="translate(0 1.408)"/></g></g></svg>