<svg xmlns="http://www.w3.org/2000/svg" width="8.217" height="18.331" viewBox="0 0 8.217 18.331"><defs><style>.a{fill:#1e91cf;}.b{fill:#f5b75a;}</style></defs><g transform="translate(-63.402 -23.999)"><g transform="translate(64.034 30.004)"><path class="a" d="M80.321,176l-.316,11.673a.639.639,0,0,0,.646.652h.6a.639.639,0,0,0,.646-.652L81.585,176Z" transform="translate(-80.005 -176)"/><path class="a" d="M224.321,240l-.316,9.145a.639.639,0,0,0,.646.652h.6a.639.639,0,0,0,.646-.652L225.585,240Z" transform="translate(-218.316 -237.472)"/></g><path class="b" d="M66.823,24a.323.323,0,0,0-.3.326v3.15H65.9v-3.15A.323.323,0,0,0,65.6,24a.316.316,0,0,0-.337.315v3.16h-.632v-3.15a.323.323,0,0,0-.3-.326.316.316,0,0,0-.337.315v4a1.264,1.264,0,0,0,.253.759l.7.927h1.264l.7-.927a1.264,1.264,0,0,0,.253-.759v-4A.316.316,0,0,0,66.823,24Z" transform="translate(-0.598 0)"/><path class="b" d="M201.264,32.533v-.948L200,31.269S200.316,24,202.528,24v8.533Z" transform="translate(-131.225 -0.001)"/></g></svg>