<svg xmlns="http://www.w3.org/2000/svg" width="18" height="18" viewBox="0 0 18 18"><defs><style>.a{fill:#a6a8ac;}.b{fill:#f96232;}</style></defs><g transform="translate(0 11.715)"><g transform="translate(0 0.839)"><path class="a" d="M9,362.56a19.9,19.9,0,0,1-6.161-.871C.493,360.892,0,359.871,0,359.154a2.508,2.508,0,0,1,1.535-1.974.527.527,0,0,1,.508.924c-.628.345-.988.728-.988,1.05,0,.394.558,1,2.124,1.536A18.83,18.83,0,0,0,9,361.505a18.83,18.83,0,0,0,5.821-.815c1.566-.532,2.124-1.142,2.124-1.536,0-.322-.36-.7-.988-1.05a.527.527,0,0,1,.508-.924A2.508,2.508,0,0,1,18,359.154c0,.716-.493,1.738-2.839,2.535A19.9,19.9,0,0,1,9,362.56Z" transform="translate(0 -357.115)"/><path class="a" d="M263.461,357.181a.527.527,0,0,0-.508.924c.628.345.988.728.988,1.05,0,.394-.558,1-2.124,1.536a18.83,18.83,0,0,1-5.821.815h0v1.055h0a19.9,19.9,0,0,0,6.161-.871c2.347-.8,2.839-1.819,2.839-2.535A2.508,2.508,0,0,0,263.461,357.181Z" transform="translate(-246.996 -357.116)"/></g><g transform="translate(3.045)"><path class="a" d="M92.565,337.362a15.28,15.28,0,0,1-3.981-.469c-1.31-.37-1.974-.906-1.974-1.592s.664-1.222,1.974-1.592a17.134,17.134,0,0,1,7.963,0c1.31.37,1.974.905,1.974,1.592s-.664,1.222-1.974,1.592A15.282,15.282,0,0,1,92.565,337.362ZM87.674,335.3a2.692,2.692,0,0,0,1.388.628,16.425,16.425,0,0,0,7.006,0,2.693,2.693,0,0,0,1.388-.628,2.693,2.693,0,0,0-1.388-.628,16.427,16.427,0,0,0-7.006,0A2.693,2.693,0,0,0,87.674,335.3Zm9.8.022h0Z" transform="translate(-86.61 -333.241)"/><path class="a" d="M259.978,333.709A15.282,15.282,0,0,0,256,333.24h0v1.055h0a14.8,14.8,0,0,1,3.5.378,2.693,2.693,0,0,1,1.388.628,2.693,2.693,0,0,1-1.388.628,14.8,14.8,0,0,1-3.5.378h0v1.055h0a15.28,15.28,0,0,0,3.981-.469c1.31-.37,1.974-.906,1.974-1.592S261.287,334.079,259.978,333.709Z" transform="translate(-250.041 -333.24)"/></g></g><g transform="translate(4.098)"><path class="b" d="M121.462,0a4.908,4.908,0,0,0-4.9,4.9c0,1.684,2.045,5.384,3.761,8.191a1.337,1.337,0,0,0,2.281,0c1.716-2.807,3.761-6.508,3.761-8.191A4.908,4.908,0,0,0,121.462,0Zm0,6.536a1.97,1.97,0,1,1,1.97-1.97A1.973,1.973,0,0,1,121.462,6.536Z" transform="translate(-116.56)"/><path class="b" d="M256,0h0V2.6h0a1.97,1.97,0,1,1,0,3.941h0v7.2h0a1.328,1.328,0,0,0,1.141-.64c1.716-2.807,3.761-6.508,3.761-8.191A4.908,4.908,0,0,0,256,0Z" transform="translate(-251.094)"/></g></svg>