<svg xmlns="http://www.w3.org/2000/svg" width="22" height="22" viewBox="0 0 22 22"><defs><style>.a{fill:#a8a8a8;}</style></defs><g transform="translate(-38 -47.001)"><path class="a" d="M7494-110h-14a4,4,0,0,1-4-4v-14a4,4,0,0,1,4-4h14a4,4,0,0,1,4,4v14A4,4,0,0,1,7494-110Zm-5.653-18.874a.394.394,0,0,0-.393.393v4.97a.387.387,0,0,0,.216.35l.568.29v8.7a1.18,1.18,0,0,0,1.178,1.18,1.181,1.181,0,0,0,1.18-1.18v-8.7l.572-.288a.387.387,0,0,0,.214-.352v-4.966a.393.393,0,0,0-.391-.393.394.394,0,0,0-.394.393v3.223h-.787v-3.216a.394.394,0,0,0-.393-.393.393.393,0,0,0-.392.393v3.222h-.786v-3.229A.394.394,0,0,0,7488.347-128.874Zm-5.956,0h0a.39.39,0,0,0-.212.063.387.387,0,0,0-.183.331v14.305a1.181,1.181,0,0,0,1.18,1.18,1.18,1.18,0,0,0,1.178-1.18v-6.755a.1.1,0,0,1,.03-.073,2.883,2.883,0,0,0,.851-2.044v-1.588a4.671,4.671,0,0,0-2.68-4.2.387.387,0,0,0-.164-.036Zm7.527,15.093a.394.394,0,0,1-.393-.393v-8.936a.389.389,0,0,0-.215-.35l-.57-.29v-.723h2.357v.719l-.572.294a.392.392,0,0,0-.216.35v8.936A.393.393,0,0,1,7489.918-113.782Zm-6.737,0a.394.394,0,0,1-.393-.393V-127.8a3.859,3.859,0,0,1,1.667,3.169v1.588a2.118,2.118,0,0,1-.619,1.487.9.9,0,0,0-.261.63v6.755A.394.394,0,0,1,7483.181-113.782Z" transform="translate(-7438 179)"/></g></svg>