<svg xmlns="http://www.w3.org/2000/svg" width="33.332" height="38.175" viewBox="0 0 33.332 38.175"><defs><style>.a{fill:#4cbf7c;}.b{fill:#efe2dd;}.c{fill:#ded3cf;}.d{fill:#08a74c;}.e{fill:#1e91cf;}</style></defs><g transform="translate(0 0)"><path class="a" d="M136.313,60H122.892a1.108,1.108,0,0,0-1.118,1.118v13.5a1.108,1.108,0,0,0,1.118,1.118h13.421a1.108,1.108,0,0,0,1.118-1.118v-13.5A1.107,1.107,0,0,0,136.313,60Zm0,0" transform="translate(-112.731 -55.526)"/><path class="b" d="M33.7,242.633l-5.145,9.82a7.828,7.828,0,0,1-6.934,4.2H12.248L8,260.893a1.2,1.2,0,0,1-.783.313,1.215,1.215,0,0,1-.805-.313L.818,255.315a1.148,1.148,0,0,1,0-1.588l6.621-6.621a5.566,5.566,0,0,1,3.959-1.633H23.03a.97.97,0,0,1,.85,1.432c-.492.962-1.074,2.08-1.275,2.438a1.116,1.116,0,0,1-.984.6H14.015a1.118,1.118,0,0,0,0,2.237H21.62a3.333,3.333,0,0,0,2.952-1.789l3.445-6.554a5.313,5.313,0,0,1,4.7-2.841,1.1,1.1,0,0,1,.94.537,1.072,1.072,0,0,1,.043,1.1Zm0,0" transform="translate(-0.499 -223.031)"/><path class="c" d="M231.024,305.474h-4.25V301h5.659a.97.97,0,0,1,.85,1.432c-.492.962-1.074,2.08-1.275,2.438A1.116,1.116,0,0,1,231.024,305.474Zm0,0" transform="translate(-209.902 -278.557)"/><path class="c" d="M243.1,242.633l-5.145,9.82a7.828,7.828,0,0,1-6.934,4.2h-4.25v-4.474h4.25a3.333,3.333,0,0,0,2.952-1.789l3.445-6.554a5.313,5.313,0,0,1,4.7-2.841,1.1,1.1,0,0,1,.94.537,1.072,1.072,0,0,1,.042,1.1Zm0,0" transform="translate(-209.902 -223.031)"/><path class="d" d="M229,61.118v13.5c0,.626-.14,1.118-.319,1.118h-1.913V60h1.913C228.865,60,229,60.492,229,61.118Zm0,0" transform="translate(-204.305 -55.526)"/><path class="e" d="M188.484,3.355V7.829a1.118,1.118,0,0,1-2.237,0V3.355a1.118,1.118,0,1,0-2.237,0V7.829a1.118,1.118,0,0,1-2.237,0V3.355a3.355,3.355,0,1,1,6.71,0Zm0,0" transform="translate(-168.258)"/></g></svg>