<svg xmlns="http://www.w3.org/2000/svg" width="26.707" height="26.701" viewBox="0 0 26.707 26.701"><defs><style>.a{fill:#1e91cf;}</style></defs><g transform="translate(-1200.654 -9461.878)"><path class="a" d="M2649.018,9592.579a13.329,13.329,0,0,1-10.842-5.547,13.349,13.349,0,0,1,10.817-21.154,13.337,13.337,0,0,1,10.846,5.547,13.352,13.352,0,0,1-10.821,21.154Zm-6.6-11a6.564,6.564,0,0,0,6.525,6.6h.036a6.569,6.569,0,0,0,6.566-6.527l-13.128-.075Zm11.572-8.182a2.233,2.233,0,0,0-2.227,2.215l4.457.026a2.234,2.234,0,0,0-2.215-2.241Zm-9.523,0a2.232,2.232,0,0,0-2.225,2.215l4.455.026a2.229,2.229,0,0,0-2.215-2.241Z" transform="translate(-1435 -104)"/></g></svg>