<svg xmlns="http://www.w3.org/2000/svg" width="36.766" height="32.335" viewBox="0 0 36.766 32.335"><defs><style>.a{fill:#fff;}.b{fill:#efe2dd;}.c{fill:#0aa74c;}.d{fill:#cdbfba;}.e{fill:#1d84bd;}.f{fill:#4cbf7c;}.g{fill:#fff5f5;}.h{fill:#1e91cf;}.i{fill:#125071;}</style></defs><g transform="translate(0.004)"><rect class="a" width="9.356" height="15.748" transform="translate(4.512 13.437)"/><rect class="a" width="17.672" height="13.648" transform="translate(13.868 10.288)"/><path class="b" d="M1248.491,9946.394h-27.735a.717.717,0,0,0-.709.718v29.381a.715.715,0,0,0,.709.719h27.735a.715.715,0,0,0,.709-.719v-29.381a.715.715,0,0,0-.709-.718Zm-18.41,28.1h-7.729v-17.31h7.729Zm17.222-4.89h-15.322v-12.42H1247.3Z" transform="translate(-1216.628 -9946.394)"/><path class="c" d="M1209.69,9980.262v4.66a2.042,2.042,0,1,0,4.084,0v-4.661Z" transform="translate(-1209.685 -9968.985)"/><path class="d" d="M1222.079,9980.262v4.66a2.042,2.042,0,1,0,4.083,0v-4.662Z" transform="translate(-1217.99 -9968.985)"/><path class="c" d="M1234.467,9980.262v4.66a2.031,2.031,0,1,0,4.062,0v-4.661Z" transform="translate(-1226.295 -9968.985)"/><path class="d" d="M1246.792,9980.262v4.66a2.031,2.031,0,1,0,4.062,0v-4.661Z" transform="translate(-1234.557 -9968.985)"/><path class="c" d="M1259.117,9980.262v4.66a2.031,2.031,0,1,0,4.062,0v-4.661Z" transform="translate(-1242.819 -9968.985)"/><path class="d" d="M1271.442,9980.262v4.66a2.032,2.032,0,1,0,4.064,0v-4.66Z" transform="translate(-1251.081 -9968.985)"/><path class="d" d="M1271.442,9980.262v4.66a2.032,2.032,0,1,0,4.064,0v-4.66Z" transform="translate(-1242.84 -9968.985)"/><path class="e" d="M1283.768,9980.262v4.66a2.031,2.031,0,1,0,4.062,0v-4.661Z" transform="translate(-1259.344 -9968.985)"/><path class="e" d="M1308.417,9980.262v4.66a2.106,2.106,0,0,0,4.21,0v-4.66Z" transform="translate(-1275.867 -9968.985)"/><path class="f" d="M1213.9,9970.786h-4.229l3.534-4.8h3.345Z" transform="translate(-1209.675 -9959.465)"/><path class="g" d="M1226.24,9970.786h-4.229l2.681-4.8h3.345Z" transform="translate(-1217.944 -9959.465)"/><path class="f" d="M1238.577,9970.786h-4.229l1.831-4.8h3.345Z" transform="translate(-1226.215 -9959.465)"/><path class="g" d="M1250.914,9970.786h-4.229l.98-4.8h3.345Z" transform="translate(-1234.484 -9959.465)"/><path class="f" d="M1263.25,9970.786h-4.229l.131-4.8h3.345Z" transform="translate(-1242.754 -9959.465)"/><path class="g" d="M1274.123,9970.786h-4.229l-.719-4.8h3.345Z" transform="translate(-1249.561 -9959.465)"/><path class="h" d="M1284.731,9970.786H1280.5l-1.57-4.8h3.345Z" transform="translate(-1256.102 -9959.465)"/><path class="g" d="M1295.339,9970.786h-4.229l-2.42-4.8h3.345Z" transform="translate(-1262.643 -9959.465)"/><path class="h" d="M1305.947,9970.786h-4.229l-3.27-4.8h3.345Z" transform="translate(-1269.185 -9959.465)"/><rect class="i" width="31.185" height="2.1" rx="0.5" transform="translate(2.433 30.235)"/></g></svg>