<svg xmlns="http://www.w3.org/2000/svg" width="38.476" height="29.357" viewBox="0 0 38.476 29.357"><defs><style>.a{fill:#33363d;}.b{fill:#ff9d48;}.c{fill:#f80;}.d{fill:#1e91cf;}.e{fill:#1d84bd;}.f{fill:#6fb9e0;}.g{fill:#0aa74c;}.h{fill:#4cbf7c;}.i{fill:#08a74c;}.j{fill:#a5dfbd;}.k{fill:#cdbfba;}.l{fill:#efe2dd;}</style></defs><g transform="translate(0.001)"><path class="a" d="M11.939,45.182,1.894,35.137a1.11,1.11,0,1,0-1.57,1.57L10.369,46.751Zm0,0" transform="translate(0 -32.234)"/><path class="b" d="M222.426,140.262a7.141,7.141,0,0,1,14.282,0Zm0,0" transform="translate(-205.712 -123.155)"/><path class="c" d="M308.281,133.121a7.191,7.191,0,0,0-.746.039,7.141,7.141,0,0,1,6.4,7.1h1.491a7.141,7.141,0,0,0-7.145-7.139Zm0,0" transform="translate(-284.425 -123.155)"/><path class="c" d="M254.8,170.2a4.709,4.709,0,0,1,9.417,0Zm0,0" transform="translate(-235.654 -153.094)"/><path class="c" d="M286.129,199.174a2.354,2.354,0,0,1,4.708,0Zm0,0" transform="translate(-264.628 -182.068)"/><path class="b" d="M308.765,196.82a2.348,2.348,0,0,0-.706.108,2.355,2.355,0,0,1,1.648,2.246h1.412A2.354,2.354,0,0,0,308.765,196.82Zm0,0" transform="translate(-284.909 -182.068)"/><path class="d" d="M162.569,113.437a.469.469,0,0,1,.693.029,5.179,5.179,0,0,1-7.668,6.946Zm0,0" transform="translate(-143.902 -104.822)"/><path class="e" d="M164.351,146.891a5.178,5.178,0,0,1-7.955,3.788l-.8.8a5.179,5.179,0,0,0,8.757-4.589Zm0,0" transform="translate(-143.902 -135.89)"/><path class="f" d="M183.311,134.492a2.629,2.629,0,1,1-3.718,3.718Zm0,0" transform="translate(-166.098 -124.423)"/><path class="g" d="M38.182,118.924a.47.47,0,0,0-.5-.5c-1.281.079-4.614.451-6.362,2.2a4.028,4.028,0,0,0-.666,5.327,4.028,4.028,0,0,0,5.327-.666C37.731,123.539,38.1,120.205,38.182,118.924Zm0,0" transform="translate(-27.688 -109.564)"/><path class="h" d="M41.049,118.482c-.159,1.538-.647,4.2-2.143,5.692a4,4,0,0,1-4.606,1.057,3.7,3.7,0,0,0,.391.721,4.028,4.028,0,0,0,5.327-.666c1.747-1.747,2.119-5.081,2.2-6.361a.47.47,0,0,0-.5-.5C41.535,118.438,41.308,118.455,41.049,118.482Zm0,0" transform="translate(-31.723 -109.564)"/><path class="h" d="M128.483,12.291a.47.47,0,0,0-.5.5c.078,1.116.407,3.732,1.8,5.124a3.307,3.307,0,0,0,4.374.547,3.307,3.307,0,0,0-.547-4.373C132.216,12.7,129.6,12.368,128.483,12.291Zm0,0" transform="translate(-118.363 -11.404)"/><path class="i" d="M149.817,30.3a4.09,4.09,0,0,0-.587-.482,3.269,3.269,0,0,1,.006,3.728,3.269,3.269,0,0,1-3.728-.006,4.108,4.108,0,0,0,.482.588,3.308,3.308,0,0,0,4.374.547,3.308,3.308,0,0,0-.547-4.375Zm0,0" transform="translate(-134.574 -27.613)"/><path class="g" d="M347.5,72.861a.47.47,0,0,0-.5.5c.078,1.116.407,3.732,1.8,5.124a3.307,3.307,0,0,0,4.373.547,3.307,3.307,0,0,0-.547-4.374C351.235,73.267,348.618,72.938,347.5,72.861Zm0,0" transform="translate(-320.925 -67.422)"/><path class="j" d="M368.988,91.021a4.044,4.044,0,0,0-.569-.47,2.636,2.636,0,0,1-3.728,3.728,4.087,4.087,0,0,0,.47.569,2.792,2.792,0,1,0,3.827-3.827Zm0,0" transform="translate(-337.287 -83.784)"/><path class="b" d="M101.305,147.745a3.139,3.139,0,1,1-3.139-3.139A3.139,3.139,0,0,1,101.305,147.745Zm0,0" transform="translate(-87.886 -133.777)"/><path class="c" d="M107.1,152.309a3.138,3.138,0,0,1-4.375,4.375,3.138,3.138,0,1,0,4.375-4.375Zm0,0" transform="translate(-95.007 -140.901)"/><path class="c" d="M123.487,171.892a1.177,1.177,0,1,1-1.177-1.177,1.177,1.177,0,0,1,1.177,1.177Zm0,0" transform="translate(-112.03 -157.924)"/><path class="e" d="M365.492,164.406a5.179,5.179,0,1,1,10.358,0Zm0,0" transform="translate(-338.027 -147.299)"/><path class="d" d="M426.686,159.227a5.214,5.214,0,0,0-.628.039,5.179,5.179,0,0,1,4.551,5.14h1.256a5.179,5.179,0,0,0-5.179-5.179Zm0,0" transform="translate(-394.042 -147.299)"/><path class="d" d="M399.43,195.8a2.629,2.629,0,1,1,5.258,0Zm0,0" transform="translate(-369.414 -178.69)"/><path class="f" d="M249.59,3.639A3.139,3.139,0,1,1,246.451.5a3.139,3.139,0,0,1,3.139,3.139Zm0,0" transform="translate(-225.029 -0.5)"/><path class="d" d="M255.165,7.98a3.138,3.138,0,0,1-4.368,4.369,3.139,3.139,0,1,0,4.368-4.369Zm0,0" transform="translate(-231.951 -7.418)"/><path class="e" d="M271.772,27.783a1.177,1.177,0,1,1-1.177-1.177,1.177,1.177,0,0,1,1.177,1.177Zm0,0" transform="translate(-249.173 -24.644)"/><g transform="translate(2.38 4.412)"><path class="h" d="M32.263,182.467a.588.588,0,0,1-.416-1l2.393-2.394a.589.589,0,0,1,.832.832L32.679,182.3a.588.588,0,0,1-.416.169Zm0,0" transform="translate(-31.675 -169.903)"/><path class="j" d="M178.159,63.787h-.011a.588.588,0,0,1-.577-.6,1.5,1.5,0,0,0-.432-.9l-.006-.006-2.059-2.059a.588.588,0,1,1,.832-.832l2.056,2.056a2.637,2.637,0,0,1,.785,1.767.588.588,0,0,1-.588.574Zm0,0" transform="translate(-164.139 -59.214)"/><path class="h" d="M396.564,123.012a.587.587,0,0,1-.416-.172l-2.059-2.059a.589.589,0,1,1,.832-.832l2.059,2.059a.589.589,0,0,1-.416,1Zm0,0" transform="translate(-366.696 -115.225)"/></g><path class="k" d="M122.016,359.855l-.152.381a3.139,3.139,0,0,1-2.915,1.973H101.227a3.139,3.139,0,0,1-2.915-1.974l-.152-.38Zm0,0" transform="translate(-90.784 -332.852)"/><path class="l" d="M20.947,209.484H2.4a.628.628,0,0,0-.616.748L2.853,215.7a6.278,6.278,0,0,0,6.162,5.08H32.879a6.277,6.277,0,0,0,6.162-5.08l1.064-5.473a.628.628,0,0,0-.616-.748Zm0,0" transform="translate(-1.643 -193.78)"/><path class="k" d="M358.3,209.481l-1.21,6.22a6.278,6.278,0,0,1-6.162,5.079H355.8a6.278,6.278,0,0,0,6.162-5.079l1.064-5.473a.628.628,0,0,0-.616-.748h-4.1Zm0,0" transform="translate(-324.563 -193.777)"/></g></svg>