<svg xmlns="http://www.w3.org/2000/svg" xmlns:xlink="http://www.w3.org/1999/xlink" width="48.871" height="50.174" viewBox="0 0 48.871 50.174"><defs><style>.a{fill:#1e91cf;}.b{clip-path:url(#a);}.c{clip-path:url(#b);}</style><clipPath id="a"><path d="M18.513-87.061h19.6v-17.964h-19.6Z" transform="translate(-18.513 105.025)"/></clipPath><clipPath id="b"><path d="M0-207.406H48.871v50.174H0Z" transform="translate(0 207.406)"/></clipPath></defs><g transform="translate(0 207.406)"><g transform="translate(26.743 -179.49)"><path class="a" d="M0-9.228H8.067L9.75-12.173H1.683Z" transform="translate(0 12.173)"/></g><path class="a" d="M108.786-74.966h8.246v10.6h-8.246Z" transform="translate(-82.47 -100.401)"/><path class="a" d="M147.742-74.966h3.534v10.6h-3.534Z" transform="translate(-112.002 -100.401)"/><path class="a" d="M118.526-101.748h8.246v1.178h-8.246Z" transform="translate(-89.853 -80.098)"/><g transform="translate(36.166 -178.891)"><path class="a" d="M0-7.352H2.682L1.341-9.7Z" transform="translate(0 9.699)"/></g><path class="a" d="M4.711,30.761H.433A.9.9,0,0,1,0,29.986V27.873l.561-.726H4.711v3.614Zm0-5.431H1.966l1.619-2.095a.315.315,0,0,0,.034-.334.32.32,0,0,0-.285-.177H.612a4.257,4.257,0,0,0-.606-1.718l0-5.249H6.8L4.788,19.276a.671.671,0,0,0-.077.295v5.759ZM7.068,13.939H.009v-.675A6.275,6.275,0,0,1,1.774,8.894L3.019,7.6a4.457,4.457,0,0,0,.949-1.465A5,5,0,0,0,4.293,4.3H9.557a5,5,0,0,0,.326,1.834A4.457,4.457,0,0,0,10.833,7.6l1.244,1.294a6.263,6.263,0,0,1,1.715,3.587L9.423,12.5H7.657a.59.59,0,0,0-.589.589v.847ZM10.679,2.484H3.171a.259.259,0,0,1-.259-.26V.26A.259.259,0,0,1,3.171,0h7.508a.26.26,0,0,1,.26.26V2.224A.26.26,0,0,1,10.679,2.484Z" transform="translate(20.427 -195.527)"/><g transform="translate(4.479 -182.639)"><g class="b"><path class="a" d="M12.5,17.253H5.723a.361.361,0,0,1-.283-.139L.287,10.445H17.94l-5.153,6.669A.364.364,0,0,1,12.5,17.253ZM6.216,9.811h-1.1a1.323,1.323,0,0,1,.078-.228L4.7,9a2.026,2.026,0,0,0-.317.813H3.8A3.04,3.04,0,0,1,4.274,8.5L.075,3.537a.317.317,0,0,1,.484-.41L4.719,8.042a2.677,2.677,0,0,1,1.232-.56L3.068.437A.317.317,0,1,1,3.655.2L6.624,7.453A2.681,2.681,0,0,1,8.271,8.2,4.035,4.035,0,0,1,11.819,6.09,3.96,3.96,0,0,1,14.526,7.2a4.383,4.383,0,0,1,.9,1.185,4.182,4.182,0,0,1,.443,1.429h-.656a3.4,3.4,0,0,0-6.5-1.065,2.647,2.647,0,0,1,.365,1.065h-.64A2.054,2.054,0,0,0,6.408,8.077h0a2.025,2.025,0,0,0-1.279.449l.464.549a1.329,1.329,0,0,1,1.642.01,1.341,1.341,0,0,1,.466.726H7.027A.694.694,0,0,0,6,9.56l.212.251Zm3.577,0h-.64a2.685,2.685,0,0,1,5.332,0h-.64a2.051,2.051,0,0,0-4.052,0Zm1.405,0h-.673a1.342,1.342,0,0,1,.466-.726,1.329,1.329,0,0,1,1.655,0,1.341,1.341,0,0,1,.466.725H12.44a.7.7,0,0,0-1.242,0Z" transform="translate(0.697 0.025)"/></g></g><g transform="translate(0 -207.406)"><g class="c"><g transform="translate(13.633 25.469)"><path class="a" d="M-4.108-11.6a1.509,1.509,0,0,0-.408-1.044.905.905,0,0,1-.268-.648.9.9,0,0,1,.268-.648,1.512,1.512,0,0,0,.408-1.045.317.317,0,0,0-.317-.317.318.318,0,0,0-.317.317.9.9,0,0,1-.269.649,1.517,1.517,0,0,0-.408,1.044,1.514,1.514,0,0,0,.408,1.044.9.9,0,0,1,.269.648.9.9,0,0,1-.269.647,1.512,1.512,0,0,0-.408,1.043.317.317,0,0,0,.317.317.317.317,0,0,0,.317-.317.9.9,0,0,1,.268-.647A1.507,1.507,0,0,0-4.108-11.6" transform="translate(5.419 15.303)"/></g><g transform="translate(12.281 26.143)"><path class="a" d="M-2.984-10.481a.317.317,0,0,0,.317-.317.318.318,0,0,0-.072-.2,2.215,2.215,0,0,1-.562-1.49,2.195,2.195,0,0,1,.179-.89.316.316,0,0,0-.162-.418.318.318,0,0,0-.418.162,2.826,2.826,0,0,0-.234,1.146,2.855,2.855,0,0,0,.7,1.889.317.317,0,0,0,.249.12" transform="translate(3.936 13.826)"/></g><g transform="translate(15.029 27.161)"><path class="a" d="M-2.343-10.463a.317.317,0,0,0,.291-.19,2.819,2.819,0,0,0,.231-1.138,2.838,2.838,0,0,0-.685-1.864.32.32,0,0,0-.091-.093.317.317,0,0,0-.439.088.321.321,0,0,0,0,.354l.016.022a2.215,2.215,0,0,1,.565,1.493,2.186,2.186,0,0,1-.177.884.318.318,0,0,0,.163.418.32.32,0,0,0,.127.026" transform="translate(3.09 13.801)"/></g></g></g></g></svg>