<svg
    xmlns="http://www.w3.org/2000/svg"
    viewBox="0 0 36 36"
    id="vector">
    <path
        id="path"
        d="M 4.328 4.942 L 4.328 14.661 C 4.328 14.784 4.36 14.905 4.422 15.011 C 4.483 15.117 4.572 15.206 4.678 15.267 C 4.784 15.329 4.905 15.361 5.028 15.361 L 14.747 15.361 C 14.933 15.361 15.111 15.287 15.242 15.156 C 15.373 15.025 15.447 14.847 15.447 14.661 L 15.447 12.818 C 15.446 12.632 15.372 12.454 15.24 12.323 C 15.109 12.191 14.93 12.118 14.745 12.118 C 14.559 12.118 14.38 12.191 14.249 12.323 C 14.117 12.454 14.043 12.632 14.042 12.818 L 14.042 13.958 L 5.734 13.958 L 5.734 5.645 L 14.048 5.645 L 14.048 7.337 C 14.048 7.523 14.122 7.701 14.253 7.832 C 14.384 7.963 14.562 8.037 14.748 8.037 C 14.934 8.037 15.112 7.963 15.243 7.832 C 15.374 7.701 15.448 7.523 15.448 7.337 L 15.448 4.942 C 15.448 4.756 15.374 4.578 15.243 4.447 C 15.112 4.316 14.934 4.242 14.748 4.242 L 5.031 4.242 C 4.845 4.242 4.667 4.316 4.536 4.447 C 4.405 4.578 4.331 4.756 4.331 4.942 Z M 4.328 4.942"
        fill="#6d6e71"/>
    <path
        id="path_1"
        d="M 8.433 7.637 C 8.247 7.637 8.069 7.711 7.938 7.842 C 7.807 7.973 7.733 8.151 7.733 8.337 L 7.733 11.253 C 7.733 11.439 7.807 11.617 7.938 11.748 C 8.069 11.879 8.247 11.953 8.433 11.953 L 11.349 11.953 C 11.535 11.953 11.713 11.879 11.844 11.748 C 11.975 11.617 12.049 11.439 12.049 11.253 L 12.049 8.337 C 12.049 8.151 11.975 7.973 11.844 7.842 C 11.713 7.711 11.535 7.637 11.349 7.637 Z M 10.646 10.553 L 9.136 10.553 L 9.136 9.043 L 10.646 9.043 Z M 10.646 10.553"
        fill="#6d6e71"/>
    <path
        id="path_2"
        d="M 14.75 20.383 L 5.031 20.383 C 4.845 20.383 4.667 20.457 4.536 20.588 C 4.405 20.719 4.331 20.897 4.331 21.083 L 4.331 30.802 C 4.331 30.988 4.405 31.166 4.536 31.297 C 4.667 31.428 4.845 31.502 5.031 31.502 L 14.75 31.502 C 14.936 31.502 15.114 31.428 15.245 31.297 C 15.376 31.166 15.45 30.988 15.45 30.802 L 15.45 21.083 C 15.45 20.897 15.376 20.719 15.245 20.588 C 15.114 20.457 14.936 20.383 14.75 20.383 Z M 14.05 30.102 L 5.734 30.102 L 5.734 21.788 L 14.048 21.788 Z M 14.05 30.102"
        fill="#6d6e71"/>
    <path
        id="path_3"
        d="M 21.222 15.364 L 30.941 15.364 C 31.127 15.364 31.305 15.29 31.436 15.159 C 31.567 15.028 31.641 14.85 31.641 14.664 L 31.641 4.942 C 31.641 4.756 31.567 4.578 31.436 4.447 C 31.305 4.316 31.127 4.242 30.941 4.242 L 21.222 4.242 C 21.036 4.242 20.858 4.316 20.727 4.447 C 20.596 4.578 20.522 4.756 20.522 4.942 L 20.522 14.661 C 20.522 14.847 20.596 15.025 20.727 15.156 C 20.858 15.287 21.036 15.361 21.222 15.361 Z M 21.922 5.645 L 30.236 5.645 L 30.236 13.959 L 21.922 13.959 Z M 21.922 5.645"
        fill="#6d6e71"/>
    <path
        id="path_4"
        d="M 31.644 30.805 L 31.644 21.086 C 31.644 20.9 31.57 20.722 31.439 20.591 C 31.308 20.46 31.13 20.386 30.944 20.386 L 21.225 20.386 C 21.039 20.386 20.861 20.46 20.73 20.591 C 20.599 20.722 20.525 20.9 20.525 21.086 L 20.525 30.805 C 20.525 30.991 20.599 31.169 20.73 31.3 C 20.861 31.431 21.039 31.505 21.225 31.505 L 30.944 31.505 C 31.13 31.505 31.308 31.431 31.439 31.3 C 31.57 31.169 31.644 30.991 31.644 30.805 Z M 30.238 30.105 L 21.924 30.105 L 21.924 21.791 L 30.238 21.791 Z M 30.238 30.105"
        fill="#6d6e71"/>
    <path
        id="path_5"
        d="M 30.941 18.619 C 31.127 18.618 31.305 18.544 31.436 18.412 C 31.568 18.281 31.641 18.102 31.641 17.916 C 31.641 17.731 31.568 17.552 31.436 17.421 C 31.305 17.289 31.127 17.215 30.941 17.214 L 18.621 17.214 L 18.621 4.865 C 18.62 4.679 18.546 4.501 18.414 4.369 C 18.283 4.238 18.104 4.164 17.918 4.164 C 17.732 4.164 17.553 4.238 17.422 4.369 C 17.29 4.501 17.216 4.679 17.215 4.865 L 17.215 17.213 L 7.888 17.213 C 7.702 17.213 7.524 17.287 7.393 17.418 C 7.262 17.549 7.188 17.727 7.188 17.913 C 7.188 18.099 7.262 18.277 7.393 18.408 C 7.524 18.539 7.702 18.613 7.888 18.613 L 17.215 18.613 L 17.215 30.799 C 17.215 30.948 17.261 31.093 17.348 31.213 C 17.436 31.334 17.559 31.424 17.7 31.47 C 17.842 31.516 17.994 31.516 18.136 31.47 C 18.277 31.424 18.4 31.334 18.488 31.213 C 18.575 31.093 18.621 30.948 18.621 30.799 L 18.621 18.619 Z M 30.941 18.619"
        fill="#6d6e71"/>
    <path
        id="path_6"
        d="M 8.433 28.158 L 11.349 28.158 C 11.535 28.158 11.713 28.084 11.844 27.953 C 11.975 27.822 12.049 27.644 12.049 27.458 L 12.049 24.54 C 12.049 24.354 11.975 24.176 11.844 24.045 C 11.713 23.914 11.535 23.84 11.349 23.84 L 8.433 23.84 C 8.247 23.84 8.069 23.914 7.938 24.045 C 7.807 24.176 7.733 24.354 7.733 24.54 L 7.733 27.456 C 7.733 27.642 7.807 27.82 7.938 27.951 C 8.069 28.082 8.247 28.156 8.433 28.156 Z M 9.133 25.242 L 10.643 25.242 L 10.643 26.752 L 9.133 26.752 Z M 9.133 25.242"
        fill="#6d6e71"/>
    <path
        id="path_7"
        d="M 27.54 7.637 L 24.626 7.637 C 24.44 7.637 24.262 7.711 24.131 7.842 C 24 7.973 23.926 8.151 23.926 8.337 L 23.926 11.253 C 23.926 11.439 24 11.617 24.131 11.748 C 24.262 11.879 24.44 11.953 24.626 11.953 L 27.542 11.953 C 27.728 11.953 27.906 11.879 28.037 11.748 C 28.168 11.617 28.242 11.439 28.242 11.253 L 28.242 8.337 C 28.242 8.151 28.168 7.973 28.037 7.842 C 27.906 7.711 27.728 7.637 27.542 7.637 Z M 26.84 10.553 L 25.326 10.553 L 25.326 9.043 L 26.836 9.043 Z M 26.84 10.553"
        fill="#6d6e71"/>
    <path
        id="path_8"
        d="M 24.626 28.158 L 27.542 28.158 C 27.728 28.158 27.906 28.084 28.037 27.953 C 28.168 27.822 28.242 27.644 28.242 27.458 L 28.242 24.54 C 28.242 24.354 28.168 24.176 28.037 24.045 C 27.906 23.914 27.728 23.84 27.542 23.84 L 24.626 23.84 C 24.44 23.84 24.262 23.914 24.131 24.045 C 24 24.176 23.926 24.354 23.926 24.54 L 23.926 27.456 C 23.926 27.642 24 27.82 24.131 27.951 C 24.262 28.082 24.44 28.156 24.626 28.156 Z M 25.326 25.242 L 26.836 25.242 L 26.836 26.752 L 25.326 26.752 Z M 25.326 25.242"
        fill="#6d6e71"/>
    <path
        id="path_9"
        d="M 4.888 17.217 L 4.85 17.226 C 4.669 17.269 4.513 17.382 4.415 17.541 C 4.317 17.699 4.287 17.89 4.329 18.07 C 4.372 18.251 4.484 18.408 4.642 18.506 C 4.8 18.605 4.991 18.636 5.172 18.594 L 5.21 18.585 C 5.391 18.542 5.547 18.429 5.645 18.27 C 5.743 18.112 5.773 17.921 5.731 17.741 C 5.688 17.56 5.576 17.403 5.418 17.305 C 5.26 17.206 5.069 17.175 4.888 17.217 Z M 4.888 17.217"
        fill="#6d6e71"/>
    <path
        id="path_10"
        d="M 14.607 9.377 L 14.569 9.386 C 14.424 9.42 14.294 9.498 14.196 9.61 C 14.099 9.723 14.04 9.863 14.027 10.011 C 14.015 10.159 14.05 10.308 14.127 10.435 C 14.204 10.562 14.319 10.661 14.456 10.719 C 14.594 10.776 14.745 10.788 14.89 10.754 L 14.928 10.745 C 15.073 10.711 15.203 10.633 15.301 10.521 C 15.398 10.408 15.457 10.268 15.47 10.12 C 15.482 9.972 15.447 9.823 15.37 9.696 C 15.293 9.569 15.178 9.47 15.041 9.412 C 14.903 9.355 14.752 9.343 14.607 9.377 Z M 14.607 9.377"
        fill="#6d6e71"/>
    <path
        id="path_11"
        d="M 0.7 5.756 C 0.823 5.756 0.944 5.724 1.05 5.662 C 1.156 5.601 1.245 5.512 1.306 5.406 C 1.368 5.3 1.4 5.179 1.4 5.056 L 1.4 1.405 L 4.921 1.405 C 5.107 1.404 5.285 1.33 5.416 1.198 C 5.548 1.067 5.621 0.888 5.621 0.703 C 5.621 0.517 5.548 0.338 5.416 0.207 C 5.285 0.075 5.107 0.001 4.921 0 L 0.7 0 C 0.514 0 0.336 0.074 0.205 0.205 C 0.074 0.336 0 0.514 0 0.7 L 0 5.053 C 0 5.176 0.032 5.297 0.094 5.403 C 0.155 5.509 0.244 5.598 0.35 5.659 C 0.456 5.721 0.577 5.753 0.7 5.753 Z M 0.7 5.756"
        fill="#6d6e71"/>
    <path
        id="path_12"
        d="M 35.134 0 L 30.916 0 C 30.767 0 30.622 0.046 30.502 0.133 C 30.382 0.221 30.292 0.344 30.246 0.485 C 30.2 0.626 30.2 0.779 30.246 0.92 C 30.292 1.061 30.382 1.184 30.502 1.272 C 30.622 1.359 30.767 1.405 30.916 1.405 L 34.431 1.405 L 34.431 5.053 C 34.432 5.239 34.506 5.417 34.638 5.548 C 34.769 5.68 34.948 5.753 35.133 5.753 C 35.319 5.753 35.498 5.68 35.629 5.548 C 35.761 5.417 35.835 5.239 35.836 5.053 L 35.836 0.703 C 35.836 0.517 35.762 0.339 35.631 0.208 C 35.5 0.077 35.322 0.003 35.136 0.003 Z M 35.134 0"
        fill="#6d6e71"/>
    <path
        id="path_13"
        d="M 4.921 34.401 L 1.4 34.401 L 1.4 30.753 C 1.4 30.604 1.354 30.459 1.267 30.339 C 1.179 30.219 1.056 30.129 0.915 30.083 C 0.774 30.037 0.621 30.037 0.48 30.083 C 0.339 30.129 0.216 30.219 0.128 30.339 C 0.041 30.459 -0.005 30.604 -0.005 30.753 L -0.005 35.104 C -0.005 35.29 0.069 35.468 0.2 35.599 C 0.331 35.73 0.509 35.804 0.695 35.804 L 4.921 35.804 C 5.107 35.803 5.285 35.729 5.417 35.597 C 5.548 35.466 5.622 35.287 5.622 35.101 C 5.622 34.915 5.548 34.736 5.417 34.605 C 5.285 34.473 5.107 34.399 4.921 34.398 Z M 4.921 34.401"
        fill="#6d6e71"/>
    <path
        id="path_14"
        d="M 35.134 30.047 C 34.948 30.047 34.77 30.121 34.639 30.252 C 34.508 30.383 34.434 30.561 34.434 30.747 L 34.434 34.395 L 30.919 34.395 C 30.733 34.396 30.555 34.47 30.423 34.602 C 30.292 34.733 30.218 34.912 30.218 35.098 C 30.218 35.284 30.292 35.463 30.423 35.594 C 30.555 35.726 30.733 35.8 30.919 35.801 L 35.137 35.801 C 35.323 35.801 35.501 35.727 35.632 35.596 C 35.763 35.465 35.837 35.287 35.837 35.101 L 35.837 30.747 C 35.837 30.561 35.763 30.383 35.632 30.252 C 35.501 30.121 35.323 30.047 35.137 30.047 Z M 35.134 30.047"
        fill="#6d6e71"/>
</svg>
