<svg xmlns="http://www.w3.org/2000/svg" width="26.31" height="21.64" viewBox="0 0 26.31 21.64"><defs><style>.a{fill:#1e91cf;}</style></defs><g transform="translate(0 0.001)"><path class="a" d="M2002.883,3901.294a2.391,2.391,0,1,1-2.391-2.389,2.391,2.391,0,0,1,2.391,2.389Z" transform="translate(-1998.101 -3898.906)"/><path class="a" d="M2010.023,3928.749l-2.336-4.449a1.5,1.5,0,0,0-1.479-1.283H2003.3v-4.811a1.5,1.5,0,1,0-3,0v6.012a1.428,1.428,0,0,0-.031.3,1.5,1.5,0,0,0,1.5,1.5h3.44l2.229,4.245a1.5,1.5,0,1,0,2.591-1.519Z" transform="translate(-1999.496 -3910.392)"/><path class="a" d="M2.359,0h.8A2.359,2.359,0,0,1,5.517,2.359h0a2.36,2.36,0,0,1-2.36,2.36h-.8A2.36,2.36,0,0,1,0,2.359H0A2.359,2.359,0,0,1,2.359,0Z" transform="translate(0.001 16.304)"/><g transform="translate(15.571)"><path class="a" d="M2058.8,3901.294a2.39,2.39,0,1,0,2.389-2.389,2.39,2.39,0,0,0-2.389,2.389Z" transform="translate(-2052.844 -3898.906)"/><path class="a" d="M2042.216,3928.749l2.336-4.449a1.5,1.5,0,0,1,1.479-1.283h2.912v-4.811a1.5,1.5,0,0,1,3,0v6.012a1.569,1.569,0,0,1,.029.3,1.5,1.5,0,0,1-1.5,1.5h-3.44l-2.229,4.245a1.5,1.5,0,1,1-2.591-1.519Z" transform="translate(-2042.009 -3910.392)"/><path class="a" d="M2056.719,3947.993a1.61,1.61,0,0,0,1.611,1.609h2.3a1.609,1.609,0,0,0,1.611-1.609v-1.5a1.61,1.61,0,0,0-1.611-1.61h-2.3a1.61,1.61,0,0,0-1.611,1.61Z" transform="translate(-2051.502 -3928.578)"/></g><path class="a" d="M2028.454,3927.253h-11.1a1.1,1.1,0,1,0,0,2.206h4.445v8.276a1.1,1.1,0,0,0,2.207,0v-8.276h4.444a1.1,1.1,0,0,0,0-2.206Z" transform="translate(-2009.817 -3917.2)"/></g></svg>