<svg xmlns="http://www.w3.org/2000/svg" width="24.606" height="26.594" viewBox="0 0 24.606 26.594"><defs><style>.a{fill:#fff;}</style></defs><g transform="translate(0 0.001)"><path class="a" d="M7214.573-1929.407H7197v-20.883h4.138v-1.061a4.655,4.655,0,0,1,4.65-4.65,4.655,4.655,0,0,1,4.65,4.65v1.061h4.134v13.788h-1.023v-12.765h-3.111v1.635a1.416,1.416,0,0,1,.907,1.327,1.423,1.423,0,0,1-1.421,1.422,1.423,1.423,0,0,1-1.422-1.422,1.429,1.429,0,0,1,.909-1.327v-1.635h-7.25v1.635a1.43,1.43,0,0,1,.911,1.327,1.426,1.426,0,0,1-1.423,1.422,1.423,1.423,0,0,1-1.421-1.422,1.43,1.43,0,0,1,.911-1.327v-1.635h-3.114v18.837h15.526v-2.072h1.023v3.094Zm-4.648-17.3a.4.4,0,0,0-.4.4.4.4,0,0,0,.4.4.4.4,0,0,0,.4-.4A.4.4,0,0,0,7209.924-1946.7Zm-8.276,0a.4.4,0,0,0-.4.4.4.4,0,0,0,.4.4.4.4,0,0,0,.4-.4A.4.4,0,0,0,7201.648-1946.7Zm4.138-8.274a3.629,3.629,0,0,0-3.625,3.625v1.061h7.25v-1.061A3.63,3.63,0,0,0,7205.786-1954.976Z" transform="translate(-7197 1956)"/><path class="a" d="M7212.09-1942.566H7197V-1956h15.09v13.435Zm-11.662-9.305v1.111a4.123,4.123,0,0,0,4.116,4.116,4.122,4.122,0,0,0,4.118-4.116v-1.111h-1.025v1.111a3.1,3.1,0,0,1-3.093,3.092,3.1,3.1,0,0,1-3.093-3.092v-1.111Zm7.721-1.2a.409.409,0,0,0-.409.409.412.412,0,0,0,.409.409.41.41,0,0,0,.409-.409A.41.41,0,0,0,7208.15-1953.071Zm-7.211,0a.409.409,0,0,0-.407.409.41.41,0,0,0,.409.409.413.413,0,0,0,.409-.411A.412.412,0,0,0,7200.939-1953.071Z" transform="translate(-7187.484 1969.158)"/><g transform="translate(12.024 15.063)"><path class="a" d="M390.882,292.874a1.432,1.432,0,1,1,1.432-1.432,1.432,1.432,0,0,1-1.432,1.432Zm0-1.841a.409.409,0,1,0,.29.119A.409.409,0,0,0,390.882,291.033Z" transform="translate(-382.241 -290.01)"/><path class="a" d="M252.061,292.874a1.432,1.432,0,1,1,1.431-1.432A1.432,1.432,0,0,1,252.061,292.874Zm0-1.841a.409.409,0,1,0,.408.409A.409.409,0,0,0,252.061,291.033Z" transform="translate(-250.629 -290.01)"/></g></g></svg>