<svg xmlns="http://www.w3.org/2000/svg" width="39.423" height="24.762" viewBox="0 0 39.423 24.762"><defs><style>.a{fill:#1e91cf;}</style></defs><g transform="translate(-1189.577 -9794.613)"><g transform="translate(1189.577 9797.146)"><path class="a" d="M1217.3,9810.68c.413-5.706-4.194-6.188-4.194-6.188a6.2,6.2,0,0,0-2.393,0s-4.607.482-4.194,6.188a2.38,2.38,0,0,0,.413,3.024s1.856,4.4,4.606,4.4h.743c2.75,0,4.607-4.4,4.607-4.4a2.381,2.381,0,0,0,.412-3.025Zm-4.742,6.671a2.226,2.226,0,0,1-1.226,0c-2.819-1.1-3.919-4.884-3.782-6.259s1.307-2.338,1.994-2.131a8.243,8.243,0,0,0,1.375.273,6.34,6.34,0,0,0,2.051,0,8.242,8.242,0,0,0,1.375-.273c.687-.207,1.856.756,1.994,2.131s-1.115,5.422-3.776,6.258Z" transform="translate(-1201.856 -9804.37)"/><path class="a" d="M1189.577,9860.707a12.3,12.3,0,0,0,20.076-.474c-1.657-3.579-6.8-3.053-6.8-3.053a3.876,3.876,0,0,1-1.606.886,6.417,6.417,0,0,1-3.068,0,3.853,3.853,0,0,1-1.606-.887S1190.983,9856.608,1189.577,9860.707Z" transform="translate(-1189.577 -9843.438)"/></g><g transform="translate(1215.358 9794.61)"><path class="a" d="M1296.143,9801.315a2.988,2.988,0,0,1,.253.764c.422.85,1.671,3.027,3.364,3.027h.568c2.1,0,3.521-3.361,3.521-3.361a1.818,1.818,0,0,0,.315-2.312c.315-4.362-3.205-4.73-3.205-4.73a4.743,4.743,0,0,0-1.829,0s-3.236.342-3.223,4.218a7.892,7.892,0,0,1,.236,2.395Zm.569-1.567c.1-1.052,1-1.786,1.524-1.628a6.419,6.419,0,0,0,1.051.21,4.882,4.882,0,0,0,1.568,0,6.418,6.418,0,0,0,1.051-.209c.525-.158,1.418.576,1.523,1.628s-.856,4.145-2.89,4.781a1.7,1.7,0,0,1-.937,0c-2.155-.841-2.995-3.729-2.89-4.781Z" transform="translate(-1294.058 -9794.61)"/><path class="a" d="M1302.435,9837.3c-1.267-2.736-5.2-2.334-5.2-2.334a2.951,2.951,0,0,1-1.227.678,4.905,4.905,0,0,1-2.344,0,2.953,2.953,0,0,1-1.228-.678,7.623,7.623,0,0,0-2.3.182,12.3,12.3,0,0,1-1,1.64c-.11.148-.221.289-.334.425,1.612.044,4.882.5,6.22,3.395l.235.507-.22.327a9.391,9.391,0,0,0,7.4-4.141Z" transform="translate(-1288.793 -9824.468)"/></g><g transform="translate(1204.47 9795.621)"><path class="a" d="M1256.242,9847.432a3.555,3.555,0,0,1-1.488.824,5.977,5.977,0,0,1-2.842,0,3.567,3.567,0,0,1-1.489-.821,9.291,9.291,0,0,0-2.526.16,11.408,11.408,0,0,1-.67,1.024c-.111.152-.223.293-.337.431,1.629.043,4.934.509,6.287,3.431l.237.513-.315.468a12.588,12.588,0,0,1-1.426,1.751,11.637,11.637,0,0,0,1.416.087,11.385,11.385,0,0,0,9.456-5.036C1261.01,9846.943,1256.242,9847.432,1256.242,9847.432Z" transform="translate(-1246.891 -9834.698)"/><path class="a" d="M1252.929,9806.738a3.107,3.107,0,0,1,.3,1.645c.722,1.2,2,2.843,3.623,2.843h.688c2.548,0,4.268-4.076,4.268-4.076a2.2,2.2,0,0,0,.382-2.8c.382-5.289-3.886-5.733-3.886-5.733a5.741,5.741,0,0,0-2.217,0,4.577,4.577,0,0,0-3.884,4.455,6.987,6.987,0,0,1,.726,3.667Zm.226-2.009c.127-1.274,1.211-2.167,1.847-1.976a7.746,7.746,0,0,0,1.274.254,5.853,5.853,0,0,0,1.9,0,7.649,7.649,0,0,0,1.274-.256c.637-.191,1.72.7,1.847,1.976s-1.038,5.023-3.5,5.8a2.042,2.042,0,0,1-1.136,0c-2.615-1.023-3.634-4.529-3.507-5.8Z" transform="translate(-1250.821 -9798.5)"/></g></g></svg>